<svg width="6" height="6" viewBox="0 0 6 6" fill="none" xmlns="http://www.w3.org/2000/svg">
<path d="M0.146451 5.8033C0.341713 5.99856 0.658296 5.99856 0.853558 5.8033L4.94975 1.70711L4.94975 4.47488C4.94975 4.75102 5.17361 4.97488 5.44975 4.97488C5.72589 4.97488 5.94975 4.75102 5.94975 4.47488L5.94975 0.499998C5.94975 0.223855 5.72589 -2.86102e-06 5.44975 -2.86102e-06L1.47492 0C1.19878 0 0.974917 0.223858 0.974917 0.5C0.974917 0.776143 1.19878 1 1.47492 1L4.24265 0.999999L0.146451 5.09619C-0.0488105 5.29145 -0.0488105 5.60804 0.146451 5.8033Z" fill="black"/>
</svg>
