<svg width="71" height="70" viewBox="0 0 71 70" fill="none" xmlns="http://www.w3.org/2000/svg">
<path fill-rule="evenodd" clip-rule="evenodd" d="M35.5 35C35.5 30.1675 39.4175 26.25 44.25 26.25C49.0825 26.25 53 30.1675 53 35C53 39.8325 49.0825 43.75 44.25 43.75C39.4175 43.75 35.5 39.8325 35.5 35Z" fill="#1ABCFE"/>
<path fill-rule="evenodd" clip-rule="evenodd" d="M18 52.5C18 47.6675 21.9175 43.75 26.75 43.75H35.5V52.5C35.5 57.3325 31.5825 61.25 26.75 61.25C21.9175 61.25 18 57.3325 18 52.5Z" fill="#0ACF83"/>
<path fill-rule="evenodd" clip-rule="evenodd" d="M35.5 8.75V26.25H44.25C49.0825 26.25 53 22.3325 53 17.5C53 12.6675 49.0825 8.75 44.25 8.75H35.5Z" fill="#FF7262"/>
<path fill-rule="evenodd" clip-rule="evenodd" d="M18 17.5C18 22.3325 21.9175 26.25 26.75 26.25H35.5V8.75H26.75C21.9175 8.75 18 12.6675 18 17.5Z" fill="#F24E1E"/>
<path fill-rule="evenodd" clip-rule="evenodd" d="M18 35C18 39.8325 21.9175 43.75 26.75 43.75H35.5V26.25H26.75C21.9175 26.25 18 30.1675 18 35Z" fill="#A259FF"/>
</svg>
