<svg width="71" height="70" viewBox="0 0 71 70" fill="none" xmlns="http://www.w3.org/2000/svg">
<rect x="4.875" y="4.375" width="61.25" height="61.25" fill="#FFCA28"/>
<path d="M42.0625 55.3168L46.5721 52.3328C46.9255 53.4431 49.1635 56.0801 51.9904 56.0801C54.8173 56.0801 56.1298 54.5361 56.1298 53.5125C56.1298 50.723 53.2432 49.7395 51.8567 49.2671C51.6307 49.1901 51.4446 49.1267 51.3173 49.0712C51.2521 49.0428 51.1533 49.0051 51.0266 48.9567C49.4846 48.3675 43.7957 46.194 43.7957 39.8938C43.7957 32.9543 50.4928 32.1562 52.0072 32.1562C52.998 32.1562 57.762 32.2777 60.1346 36.7363L55.7596 39.7897C54.8005 37.8466 53.2069 37.2047 52.226 37.2047C49.8029 37.2047 49.2981 38.9811 49.2981 39.7897C49.2981 42.0586 51.9307 43.0755 54.1535 43.9342C54.7351 44.1589 55.2886 44.3727 55.7596 44.5952C58.1827 45.7403 61.75 47.6139 61.75 53.5125C61.75 56.4669 59.272 61.25 53.0337 61.25C44.6538 61.25 42.4327 56.2189 42.0625 55.3168Z" fill="#3E3E3E"/>
<path d="M20.1875 55.9093L24.8877 52.9268C25.256 54.0366 26.6871 56.0827 28.7637 56.0827C30.8402 56.0827 31.903 53.9499 31.903 52.9268V32.8125H37.6836V52.9268C37.7771 55.7012 36.2384 61.25 29.4476 61.25C23.2041 61.25 20.6084 57.5393 20.1875 55.9093Z" fill="#3E3E3E"/>
</svg>
