<svg width="71" height="70" viewBox="0 0 71 70" fill="none" xmlns="http://www.w3.org/2000/svg">
<g clip-path="url(#clip0_103_219)">
<path fill-rule="evenodd" clip-rule="evenodd" d="M28.541 0C23.0483 0 18.5956 4.31133 18.5956 9.62962V16.2963H35.8087V18.1481H10.9453C5.45268 18.1481 1 22.4595 1 27.7778L1 42.2222C1 47.5405 5.45269 51.8518 10.9454 51.8518H16.6831V43.7037C16.6831 38.3854 21.1357 34.0741 26.6284 34.0741H44.989C49.6367 34.0741 53.4043 30.426 53.4043 25.9259V9.62962C53.4043 4.31133 48.9517 0 43.459 0H28.541ZM26.2459 11.8518C28.1472 11.8518 29.6885 10.3595 29.6885 8.51851C29.6885 6.67757 28.1472 5.18518 26.2459 5.18518C24.3446 5.18518 22.8033 6.67757 22.8033 8.51851C22.8033 10.3595 24.3446 11.8518 26.2459 11.8518Z" fill="url(#paint0_linear_103_219)"/>
<path fill-rule="evenodd" clip-rule="evenodd" d="M43.459 70C48.9516 70 53.4043 65.6887 53.4043 60.3704V53.7037L36.1912 53.7037L36.1912 51.8519L61.0546 51.8519C66.5472 51.8519 70.9999 47.5406 70.9999 42.2223V27.7778C70.9999 22.4595 66.5472 18.1482 61.0546 18.1482L55.3169 18.1482V26.2963C55.3169 31.6146 50.8642 35.926 45.3715 35.926L27.0109 35.926C22.3632 35.926 18.5956 39.574 18.5956 44.0741L18.5956 60.3704C18.5956 65.6887 23.0483 70 28.5409 70H43.459ZM45.754 58.1482C43.8527 58.1482 42.3114 59.6406 42.3114 61.4815C42.3114 63.3225 43.8527 64.8148 45.754 64.8148C47.6553 64.8148 49.1967 63.3225 49.1967 61.4815C49.1967 59.6406 47.6553 58.1482 45.754 58.1482Z" fill="url(#paint1_linear_103_219)"/>
</g>
<defs>
<linearGradient id="paint0_linear_103_219" x1="27.2022" y1="0" x2="27.2022" y2="51.8518" gradientUnits="userSpaceOnUse">
<stop stop-color="#327EBD"/>
<stop offset="1" stop-color="#1565A7"/>
</linearGradient>
<linearGradient id="paint1_linear_103_219" x1="44.7978" y1="18.1482" x2="44.7978" y2="70" gradientUnits="userSpaceOnUse">
<stop stop-color="#FFDA4B"/>
<stop offset="1" stop-color="#F9C600"/>
</linearGradient>
<clipPath id="clip0_103_219">
<rect width="70" height="70" fill="white" transform="translate(0.5)"/>
</clipPath>
</defs>
</svg>
